<svg xmlns="http://www.w3.org/2000/svg" xmlns:xlink="http://www.w3.org/1999/xlink" version="1.1" x="0px" y="0px" viewBox="0 0 322.2 65.9" enable-background="new 0 0 322.2 65.9" xml:space="preserve"><g><g><path d="M182.1 20.6c0 2.6-0.7 4.7-2.2 6.1c-1.4 1.4-3.5 2.1-6.2 2.1h-4.4v-16h4.9c2.5 0 4.4 0.7 5.8 2.1 C181.4 16.2 182.1 18.1 182.1 20.6z M180.1 20.7c0-2.1-0.5-3.7-1.6-4.7c-1-1.1-2.6-1.6-4.7-1.6h-2.7v12.8h2.3c2.2 0 3.9-0.5 5-1.6 C179.6 24.4 180.1 22.8 180.1 20.7z"/><path d="M196.9 28.8h-8.9v-16h8.9v1.7h-7.1v5.2h6.6v1.6h-6.6v5.9h7.1V28.8z"/><path d="M211.8 12.7h2l-5.8 16h-1.8l-5.7-16h2l3.7 10.4c0.4 1.2 0.8 2.3 1 3.5c0.3-1.2 0.6-2.4 1-3.5L211.8 12.7z"/><path d="M227.2 28.8h-8.9v-16h8.9v1.7h-7.1v5.2h6.6v1.6h-6.6v5.9h7.1V28.8z"/><path d="M233 28.8v-16h1.9v14.3h7.1v1.7H233z"/><path d="M260.8 20.7c0 2.6-0.6 4.6-1.9 6c-1.3 1.5-3.1 2.2-5.4 2.2c-2.4 0-4.2-0.7-5.5-2.2c-1.3-1.4-1.9-3.5-1.9-6.1 c0-2.6 0.6-4.6 1.9-6.1c1.3-1.4 3.1-2.2 5.5-2.2c2.3 0 4.1 0.7 5.4 2.2C260.1 16.1 260.8 18.2 260.8 20.7z M248 20.7 c0 2.2 0.5 3.8 1.4 4.9c0.9 1.1 2.3 1.7 4 1.7c1.8 0 3.1-0.6 4-1.7c0.9-1.1 1.4-2.8 1.4-4.9c0-2.2-0.5-3.8-1.4-4.9 c-0.9-1.1-2.2-1.7-4-1.7c-1.8 0-3.1 0.6-4 1.7C248.5 17 248 18.6 248 20.7z"/><path d="M276.8 17.4c0 1.6-0.6 2.9-1.7 3.7c-1.1 0.9-2.7 1.3-4.8 1.3h-1.9v6.3h-1.9v-16h4.2C274.8 12.7 276.8 14.3 276.8 17.4z M268.5 20.9h1.7c1.7 0 2.8-0.3 3.6-0.8c0.7-0.5 1.1-1.4 1.1-2.6c0-1.1-0.3-1.8-1-2.4c-0.7-0.5-1.8-0.8-3.2-0.8h-2.1V20.9z"/><path d="M291.3 28.8h-8.9v-16h8.9v1.7h-7.1v5.2h6.6v1.6h-6.6v5.9h7.1V28.8z"/><path d="M298.9 22.1v6.7h-1.9v-16h4.4c2 0 3.4 0.4 4.4 1.1c0.9 0.8 1.4 1.9 1.4 3.4c0 2.1-1.1 3.6-3.2 4.3l4.4 7.2h-2.2l-3.9-6.7 H298.9z M298.9 20.5h2.6c1.3 0 2.3-0.3 2.9-0.8c0.6-0.5 0.9-1.3 0.9-2.4c0-1.1-0.3-1.8-0.9-2.3c-0.6-0.5-1.6-0.7-3-0.7h-2.4V20.5z "/><path d="M322.2 24.5c0 1.4-0.5 2.5-1.5 3.3c-1 0.8-2.4 1.2-4.2 1.2c-1.9 0-3.4-0.2-4.4-0.7v-1.8c0.7 0.3 1.4 0.5 2.1 0.7 c0.8 0.2 1.5 0.2 2.3 0.2c1.2 0 2.2-0.2 2.8-0.7c0.6-0.5 0.9-1.1 0.9-2c0-0.6-0.1-1-0.3-1.4c-0.2-0.4-0.6-0.7-1.1-1 c-0.5-0.3-1.3-0.6-2.4-1c-1.5-0.5-2.6-1.2-3.2-1.9c-0.6-0.7-1-1.7-1-2.9c0-1.2 0.5-2.2 1.4-2.9c0.9-0.7 2.2-1.1 3.7-1.1 c1.6 0 3.1 0.3 4.4 0.9l-0.6 1.6c-1.3-0.6-2.6-0.8-3.9-0.8c-1 0-1.8 0.2-2.3 0.6c-0.6 0.4-0.8 1-0.8 1.8c0 0.6 0.1 1 0.3 1.4 c0.2 0.4 0.5 0.7 1 1c0.5 0.3 1.2 0.6 2.2 1c1.7 0.6 2.8 1.2 3.5 1.9C321.9 22.5 322.2 23.4 322.2 24.5z"/><path d="M179.4 55.7l-2-5.1H171l-2 5.1h-1.9l6.3-16.1h1.6l6.3 16.1H179.4z M176.8 48.9l-1.9-5c-0.2-0.6-0.5-1.4-0.7-2.3 c-0.2 0.7-0.4 1.5-0.7 2.3l-1.9 5H176.8z"/><path d="M192.6 41.1c-1.8 0-3.2 0.6-4.2 1.8c-1 1.2-1.5 2.8-1.5 4.8c0 2.1 0.5 3.7 1.5 4.9c1 1.1 2.4 1.7 4.2 1.7 c1.1 0 2.4-0.2 3.8-0.6v1.6c-1.1 0.4-2.5 0.6-4.1 0.6c-2.4 0-4.2-0.7-5.5-2.1s-1.9-3.5-1.9-6.1c0-1.7 0.3-3.1 0.9-4.3 c0.6-1.2 1.5-2.2 2.7-2.9c1.2-0.7 2.5-1 4.1-1c1.7 0 3.1 0.3 4.4 0.9l-0.8 1.6C195.1 41.4 193.8 41.1 192.6 41.1z"/><path d="M212.2 55.7l-2-5.1h-6.4l-2 5.1H200l6.3-16.1h1.6l6.3 16.1H212.2z M209.7 48.9l-1.9-5c-0.2-0.6-0.5-1.4-0.7-2.3 c-0.2 0.7-0.4 1.5-0.7 2.3l-1.9 5H209.7z"/><path d="M231.4 47.5c0 2.6-0.7 4.7-2.2 6.1c-1.4 1.4-3.5 2.1-6.2 2.1h-4.4v-16h4.9c2.5 0 4.4 0.7 5.8 2.1 C230.7 43.1 231.4 45 231.4 47.5z M229.4 47.6c0-2.1-0.5-3.7-1.6-4.7c-1-1.1-2.6-1.6-4.7-1.6h-2.7v12.8h2.3c2.2 0 3.9-0.5 5-1.6 C228.9 51.3 229.4 49.7 229.4 47.6z"/><path d="M246.2 55.7h-8.9v-16h8.9v1.7h-7.1v5.2h6.6v1.6h-6.6V54h7.1V55.7z"/><path d="M259 55.7l-5.4-14.2h-0.1c0.1 1.1 0.2 2.5 0.2 4v10.2H252v-16h2.8l5.1 13.2h0.1l5.1-13.2h2.8v16H266V45.4 c0-1.2 0.1-2.5 0.2-3.9H266l-5.5 14.2H259z"/><path d="M278.5 47.7l4.3-8h2l-5.3 9.8v6.2h-1.9v-6.1l-5.3-9.9h2L278.5 47.7z"/></g><g><path d="M0 57.4v-1.8h7.5L23.3 7.4h2l17.9 48.3h6.2v1.8h-23v-1.8h8.6l-5.8-15.8H14.9L9.8 55.7H17v1.8H0z M15.5 38.1h13.1 l-6.9-18.7L15.5 38.1z"/><path d="M55.8 50.8c-1.1-2.4-1.7-5.2-1.7-8.5c0-3.2 0.6-6.1 1.7-8.5c1.1-2.4 2.7-4.2 4.7-5.5c1.8-1.1 3.9-1.7 6.2-1.7 c4.1 0 7.4 2.1 9.8 6.3l0.5-0.1v-25H70V6.2h12.7v49.6h4.9v1.6H77.1v-5.6l-0.5-0.1c-2.4 4.2-5.7 6.3-9.8 6.3 c-2.3 0-4.3-0.6-6.2-1.7C58.6 55 57 53.2 55.8 50.8z M61.2 35.5c-0.5 1.9-0.8 4.2-0.8 6.8c0 2.6 0.3 4.9 0.8 6.8s1.4 3.5 2.7 4.8 c1.3 1.3 2.9 1.9 4.8 1.9c2.2 0 4.1-1.3 5.9-3.8c1.7-2.5 2.6-5.8 2.6-9.7c0-4-0.9-7.2-2.6-9.7s-3.7-3.8-5.9-3.8 c-1.9 0-3.5 0.6-4.8 1.9C62.6 32 61.7 33.6 61.2 35.5z"/><path d="M95.5 50.8c0-2.7 0.7-4.8 2.2-6.1c1.4-1.3 3.5-2.2 6.1-2.5c1.8-0.2 3.3-0.6 4.5-1c1.2-0.5 2.5-1.1 3.8-2v-3.6 c0-0.8-0.1-1.7-0.3-2.4c-0.2-0.8-0.5-1.5-0.9-2.3c-0.4-0.8-1.1-1.4-1.9-1.8c-0.8-0.5-1.9-0.7-3.1-0.7c-1.4 0-2.6 0.3-3.6 0.9 c-1.1 0.6-1.6 1.4-1.6 2.3c0 0.5 0.2 1.1 0.6 1.8c0.5 0.7 0.7 1.4 0.7 2.1c0 0.7-0.2 1.2-0.7 1.7c-0.5 0.5-1.2 0.7-2.2 0.7 c-1.1 0-1.9-0.3-2.4-0.9c-0.5-0.6-0.8-1.4-0.8-2.3c0-2.1 1-3.9 3-5.6c2-1.6 4.5-2.4 7.3-2.4c4 0 6.9 1.1 8.7 3.2 c1.8 2.1 2.7 4.9 2.7 8.4V52c0 1.4 0.3 2.4 1 3c0.7 0.6 1.5 1 2.4 1c0.7 0 1.4-0.1 2.2-0.2l0.3 1.7c-1.1 0.3-2.1 0.5-2.9 0.5 c-2.2 0-4-0.4-5.3-1.1c-1.3-0.7-2.3-2.2-2.9-4.3h-0.3c-1.1 1.7-2.4 3-3.7 4c-1.4 0.9-3.1 1.4-5.3 1.4c-2.3 0-4.2-0.6-5.6-1.9 C96.2 54.8 95.5 53.1 95.5 50.8z M101.1 50.3c0 3.5 1.6 5.2 4.9 5.2c1.2 0 2.3-0.5 3.4-1.4c1.1-0.9 2-2.1 2.7-3.5v-9.9 c-1.1 0.7-2.1 1.2-3.1 1.6c-1 0.4-2.4 0.8-4.3 1.2C102.3 44.2 101.1 46.5 101.1 50.3z"/></g><g><rect x="144.7" y="0" fill="#231F20" width="1.4" height="65.9"/></g></g></svg>